<?xml version="1.0" encoding="UTF-8"?>
<!DOCTYPE svg PUBLIC "-//W3C//DTD SVG 1.1//EN" "http://www.w3.org/Graphics/SVG/1.1/DTD/svg11.dtd">
<svg xmlns="http://www.w3.org/2000/svg" version="1.1" width="500px" height="500px" style="shape-rendering:geometricPrecision; text-rendering:geometricPrecision; image-rendering:optimizeQuality; fill-rule:evenodd; clip-rule:evenodd" xmlns:xlink="http://www.w3.org/1999/xlink">
<g><path style="opacity:0.153" fill="#bdf567" d="M 236.5,46.5 C 308.751,45.16 367.251,72.4933 412,128.5C 459.454,197.626 464.788,269.96 428,345.5C 390.929,409.314 335.429,444.814 261.5,452C 187.407,453.867 128.241,425.367 84,366.5C 38.9678,298.065 34.6345,227.065 71,153.5C 99.1058,103.743 140.606,70.5762 195.5,54C 209.13,50.5049 222.797,48.0049 236.5,46.5 Z"/></g>
<g><path style="opacity:0.999" fill="#5f0500" d="M 234.5,49.5 C 318.59,47.2812 382.09,81.9479 425,153.5C 457.836,218.296 457.502,282.963 424,347.5C 381.542,416.843 319.375,450.676 237.5,449C 158.55,441.631 101.717,402.464 67,331.5C 38.6288,261.545 45.2954,195.212 87,132.5C 124.034,83.3967 173.2,55.73 234.5,49.5 Z"/></g>
<g><path style="opacity:1" fill="#f55783" d="M 224.5,114.5 C 239.17,114.333 253.837,114.5 268.5,115C 270.081,115.707 271.581,116.54 273,117.5C 298.863,182.087 324.529,246.754 350,311.5C 352,314.833 354,318.167 356,321.5C 361.687,326.189 367.021,331.189 372,336.5C 372.973,342.877 370.139,346.377 363.5,347C 342.5,347.667 321.5,347.667 300.5,347C 295.383,345.268 293.55,341.768 295,336.5C 298.581,332.85 302.248,329.184 306,325.5C 307.701,323.1 308.534,320.433 308.5,317.5C 305.568,306.205 301.735,295.205 297,284.5C 294.479,281.648 291.313,280.148 287.5,280C 261.5,279.333 235.5,279.333 209.5,280C 206.027,280.319 203.194,281.819 201,284.5C 195.429,295.631 191.596,307.298 189.5,319.5C 189.453,322.295 189.953,324.961 191,327.5C 194,330.5 197,333.5 200,336.5C 201.45,341.768 199.617,345.268 194.5,347C 179.5,347.667 164.5,347.667 149.5,347C 142.463,344.883 140.797,340.716 144.5,334.5C 150.116,330.885 155.45,326.885 160.5,322.5C 164.654,318.168 167.821,313.168 170,307.5C 189.804,257.087 209.804,206.754 230,156.5C 233.14,150.328 233.806,143.995 232,137.5C 227.993,133.826 224.326,129.826 221,125.5C 219.662,120.96 220.829,117.293 224.5,114.5 Z"/></g>
<g><path style="opacity:1" fill="#600501" d="M 248.5,161.5 C 260.889,191.966 273.056,222.632 285,253.5C 286.123,257.151 284.956,259.651 281.5,261C 259.833,261.667 238.167,261.667 216.5,261C 213.928,260.758 212.261,259.425 211.5,257C 223.939,225.177 236.273,193.344 248.5,161.5 Z"/></g>
</svg>
